<?xml version="1.0" encoding="UTF-8" standalone="no"?><!DOCTYPE svg PUBLIC "-//W3C//DTD SVG 1.1//EN" "http://www.w3.org/Graphics/SVG/1.1/DTD/svg11.dtd"><svg width="100%" height="100%" viewBox="0 0 2048 2048" version="1.1" xmlns="http://www.w3.org/2000/svg" xmlns:xlink="http://www.w3.org/1999/xlink" xml:space="preserve" xmlns:serif="http://www.serif.com/" style="fill-rule:evenodd;clip-rule:evenodd;stroke-miterlimit:10;"><path d="M1999,536.5c0,-269.059 -218.441,-487.5 -487.5,-487.5l-975,0c-269.059,0 -487.5,218.441 -487.5,487.5l0,975c0,269.059 218.441,487.5 487.5,487.5l975,0c269.059,0 487.5,-218.441 487.5,-487.5l0,-975Z" style="fill:#3b3b3b;"/><path id="CC" d="M96.119,1015.64c0,289.882 204.665,516.845 498.746,516.845c248.07,-0 387.248,-164.248 387.248,-164.248l-75.171,-100.344c0,-0 -115.558,133.792 -310.683,133.792c-200.7,-0 -355.406,-171.421 -355.406,-386.045c0,-221.593 153.312,-370.716 351.225,-370.716c98.956,0 238.334,41.811 238.334,124.037l0,55.747l128.014,-0l-0,-96.163c-0,-157.369 -236.73,-213.028 -369.136,-213.028c-281.537,0 -493.171,215.815 -493.171,500.123Z" style="fill:#00b4ff;fill-rule:nonzero;"/><path d="M1065.89,1015.64c0,289.882 204.665,516.845 498.746,516.845c248.07,-0 387.248,-164.248 387.248,-164.248l-75.171,-100.344c0,-0 -115.558,133.792 -310.683,133.792c-200.7,-0 -355.406,-171.421 -355.406,-386.045c0,-221.593 153.313,-370.716 351.225,-370.716c98.956,0 238.334,41.811 238.334,124.037l0,55.747l128.014,-0l-0,-96.163c-0,-157.369 -236.729,-213.028 -369.136,-213.028c-281.537,0 -493.171,215.815 -493.171,500.123Z" style="fill:#00b4ff;fill-rule:nonzero;"/><path id="Rectangle-2" serif:id="Rectangle 2" d="M1999,455.25c0,-224.215 -182.035,-406.25 -406.25,-406.25l-1137.5,0c-224.215,0 -406.25,182.035 -406.25,406.25l0,1137.5c0,224.215 182.035,406.25 406.25,406.25l1137.5,0c224.215,0 406.25,-182.035 406.25,-406.25l0,-1137.5Z" style="fill:none;stroke:#000;stroke-width:72.03px;"/></svg>