<?xml version="1.0" encoding="UTF-8"?>
<svg id="Layer_5" data-name="Layer 5" xmlns="http://www.w3.org/2000/svg" viewBox="0 0 675.29 789.69">
  <defs>
    <style>
      .cls-1 {
        fill: #fff;
      }

      .cls-1, .cls-2 {
        stroke-width: 0px;
      }

      .cls-2 {
        fill: #ec008c;
      }
    </style>
  </defs>
  <g id="CC">
    <path class="cls-2" d="m394.85,662.6c-147.88,0-267.76-119.88-267.76-267.76S246.97,127.09,394.85,127.09c74.37,0,141.65,30.33,190.17,79.28l90.27-89.47c-.41-.42-.83-.84-1.24-1.26C602.59,44.19,503.88,0,394.85,0,176.78,0,0,176.78,0,394.85s176.78,394.85,394.85,394.85c108.79,0,207.3-44,278.72-115.17l-89.71-90.02c-48.43,48.26-115.23,78.11-189.01,78.11Z"/>
    <path class="cls-1" d="m485.07,486.29c-23.2,22.89-55.06,37.03-90.23,37.03-70.95,0-128.47-57.52-128.47-128.47s57.52-128.47,128.47-128.47c35.48,0,67.6,14.38,90.85,37.64l57.95-57.43c-38.03-38.17-90.66-61.8-148.8-61.8-116.01,0-210.06,94.05-210.06,210.06s94.05,210.06,210.06,210.06c57.65,0,109.86-23.23,147.82-60.83l-57.59-57.79Z"/>
  </g>
</svg>
