<?xml version="1.0" encoding="UTF-8"?>
<svg id="Layer_5" data-name="Layer 5" xmlns="http://www.w3.org/2000/svg" viewBox="0 0 1967.74 1050.66">
  <defs>
    <style>
      .cls-1, .cls-2 {
        stroke-width: 0px;
      }

      .cls-1, .cls-3 {
        fill: #fff;
      }

      .cls-2 {
        fill: #ec008c;
      }

      .cls-3 {
        stroke: #231f20;
        stroke-miterlimit: 10;
        stroke-width: .25px;
      }
    </style>
  </defs>
  <g id="CC">
    <path class="cls-2" d="m500.89,785.76c-147.88,0-267.76-119.88-267.76-267.76s119.88-267.76,267.76-267.76c74.37,0,141.65,30.33,190.17,79.28l90.27-89.47c-.41-.42-.83-.84-1.24-1.26-71.45-71.45-170.16-115.65-279.2-115.65-218.07,0-394.85,176.78-394.85,394.85s176.78,394.85,394.85,394.85c108.79,0,207.3-44,278.72-115.17l-89.71-90.02c-48.43,48.26-115.23,78.11-189.01,78.11Z"/>
    <path class="cls-1" d="m591.11,609.45c-23.2,22.89-55.06,37.03-90.23,37.03-70.95,0-128.47-57.52-128.47-128.47s57.52-128.47,128.47-128.47c35.48,0,67.6,14.38,90.85,37.64l57.95-57.43c-38.03-38.17-90.66-61.8-148.8-61.8-116.01,0-210.06,94.05-210.06,210.06s94.05,210.06,210.06,210.06c57.65,0,109.86-23.23,147.82-60.83l-57.59-57.79Z"/>
  </g>
  <g id="Companion">
    <g>
      <path class="cls-3" d="m695.93,449.89c39.52,0,71.45,29.05,71.45,69.09s-31.93,69.62-71.45,69.62-71.19-29.31-71.19-69.62,31.67-69.09,71.19-69.09Zm0,116.73c25.12,0,45.54-19.89,45.54-47.63s-20.41-47.11-45.54-47.11-45.28,19.63-45.28,47.11,20.41,47.63,45.28,47.63Z"/>
      <path class="cls-3" d="m799.05,480.51c0-3.93-2.09-5.76-5.76-5.76h-10.73v-21.72h24.34c11.52,0,16.75,4.97,16.75,14.66v4.97c0,4.19-.26,7.59-.26,7.59h.52c6.28-15.44,24.6-30.36,45.28-30.36,22.51,0,35.33,10.21,39.78,30.1h.52c7.33-15.96,25.65-30.1,47.11-30.1,29.84,0,43.71,17.01,43.71,50.77v57.32c0,3.93,2.09,5.76,5.76,5.76h10.73v21.72h-25.12c-11.78,0-16.75-4.97-16.75-16.75v-62.55c0-18.58-3.66-33.24-23.29-33.24-18.32,0-32.45,15.96-37.16,34.02-1.31,5.5-2.09,11.25-2.09,18.06v60.46h-25.39v-79.3c0-17.27-2.62-33.24-22.77-33.24s-32.98,16.23-37.95,35.07c-1.31,5.23-1.83,10.99-1.83,17.01v60.46h-25.39v-104.95Z"/>
      <path class="cls-3" d="m1044.28,480.51c0-3.93-2.09-5.76-5.76-5.76h-10.73v-21.72h23.82c11.78,0,16.23,4.97,16.23,13.35,0,3.93-.26,7.07-.26,7.07h.52s10.99-23.55,43.97-23.55c35.59,0,58.36,28.27,58.36,69.36s-25.65,69.36-60.2,69.36c-29.31,0-40.57-21.2-40.57-21.2h-.52s.52,4.71.52,11.52v58.89h-25.39v-157.29Zm62.03,86.37c20.94,0,38.21-17.27,38.21-47.37s-15.44-47.37-37.43-47.37c-19.63,0-38.21,13.87-38.21,47.63,0,23.55,12.82,47.11,37.43,47.11Z"/>
      <path class="cls-3" d="m1268.31,503.02h5.76v-1.31c0-23.29-8.64-31.67-29.31-31.67-6.28,0-21.72,1.57-21.72,10.21v7.59h-23.82v-13.09c0-21.72,32.98-24.86,45.8-24.86,42.92,0,54.44,22.51,54.44,51.82v56.27c0,3.93,2.09,5.76,5.76,5.76h10.73v21.72h-23.82c-11.78,0-16.49-5.76-16.49-15.18,0-4.45.52-7.85.52-7.85h-.52s-10.47,26.17-42.14,26.17c-22.77,0-45.02-13.87-45.02-40.3,0-42.66,57.58-45.28,79.82-45.28Zm-29.31,65.17c21.46,0,35.33-22.51,35.33-42.14v-4.45h-6.54c-19.11,0-53.65,1.05-53.65,25.39,0,10.73,8.11,21.2,24.86,21.2Z"/>
      <path class="cls-3" d="m1343.42,480.51c0-3.93-2.09-5.76-5.76-5.76h-10.73v-21.72h24.34c11.25,0,16.75,4.97,16.75,14.66v4.97c0,4.19-.52,7.59-.52,7.59h.52c5.23-11.52,20.94-30.36,49.73-30.36,31.41,0,45.54,17.01,45.54,50.77v57.32c0,3.93,2.09,5.76,5.76,5.76h10.73v21.72h-25.12c-11.78,0-16.75-4.97-16.75-16.75v-62.29c0-18.58-3.66-33.24-24.86-33.24s-36.64,13.35-41.88,32.45c-1.83,5.23-2.36,11.25-2.36,17.8v62.03h-25.39v-104.95Z"/>
      <path class="cls-3" d="m1508.56,480.51c0-3.93-2.09-5.76-5.76-5.76h-10.73v-21.72h24.86c11.78,0,16.75,4.97,16.75,16.75v88.2c0,3.93,2.09,5.76,5.76,5.76h10.73v21.72h-24.86c-11.78,0-16.75-4.97-16.75-16.75v-88.2Zm.52-79.82h22.77v26.43h-22.77v-26.43Z"/>
      <path class="cls-3" d="m1637.59,449.89c39.52,0,71.45,29.05,71.45,69.09s-31.93,69.62-71.45,69.62-71.19-29.31-71.19-69.62,31.67-69.09,71.19-69.09Zm0,116.73c25.12,0,45.54-19.89,45.54-47.63s-20.41-47.11-45.54-47.11-45.28,19.63-45.28,47.11,20.41,47.63,45.28,47.63Z"/>
      <path class="cls-3" d="m1740.7,480.51c0-3.93-2.09-5.76-5.76-5.76h-10.73v-21.72h24.34c11.25,0,16.75,4.97,16.75,14.66v4.97c0,4.19-.52,7.59-.52,7.59h.52c5.23-11.52,20.94-30.36,49.73-30.36,31.41,0,45.54,17.01,45.54,50.77v57.32c0,3.93,2.09,5.76,5.76,5.76h10.73v21.72h-25.12c-11.78,0-16.75-4.97-16.75-16.75v-62.29c0-18.58-3.66-33.24-24.86-33.24s-36.64,13.35-41.88,32.45c-1.83,5.23-2.36,11.25-2.36,17.8v62.03h-25.39v-104.95Z"/>
    </g>
  </g>
</svg>
