<svg id="Layer_1" data-name="Layer 1" xmlns="http://www.w3.org/2000/svg" viewBox="0 0 2000 2000"><defs><style>.cls-1{fill:#414042;stroke:#231f20;stroke-miterlimit:10;stroke-width:40px;}.cls-2{fill:#44aee3;}.cls-3{fill:#fff;}</style></defs><path class="cls-1" d="M150.65,52.74H1850.39a100,100,0,0,1,100,100V1829.3a123.17,123.17,0,0,1-123.17,123.17H150.65a100,100,0,0,1-100-100V152.74a100,100,0,0,1,100-100Z"/><path class="cls-2" d="M171,657.67q0-107.1,71.16-180.38,71.88-72.56,178.27-72.57a298.42,298.42,0,0,1,57.78,6,339.59,339.59,0,0,1,60.24,18q29.94,12,49.33,33.82t19.37,50v48.62H542.37V533q0-28.89-38.75-45.8a202.12,202.12,0,0,0-81.74-16.91q-76.1,0-126.83,52.14-50.73,51.43-50.73,135.28,0,82.44,51.43,138.81Q347.89,852.87,424,852.85q50.75,0,91.25-20.43t58.84-40.17l7-7,38,50.73q-6.34,8.46-33.12,28.89a259.41,259.41,0,0,1-39.45,25.36,271.89,271.89,0,0,1-123.31,28.89q-110.62,0-181.09-74.69Q171,769,171,657.67Z"/><path class="cls-3" d="M699.49,865.53V487.16q0-15.5-15.5-15.51H655.1V413.17h67.64q24,0,34.53,10.57t10.57,34.53V836.64q0,15.51,15.5,15.51h28.89v58.48H744.58q-24,0-34.52-10.57T699.49,865.53Z"/><path class="cls-3" d="M855.91,810.57q-1.42-39.45,22.54-65.17t62-38.4a189.29,189.29,0,0,1,48.62-12,522.83,522.83,0,0,1,81.73-6.35h15.5v-3.52q0-46.5-18.31-65.88t-60.6-19.38a128.17,128.17,0,0,0-39.46,6.35q-19,5.64-19,21.13v20.44H884.8V612.58a49.84,49.84,0,0,1,13.38-34.53q13.38-14.79,35.94-21.14,38.75-11.26,74-11.27,78.21,0,112.39,35.58t34.17,103.93V836.64q0,15.51,15.5,15.51h28.89v58.48h-64.12q-44.39,0-44.39-40.87l1.41-21.14h-1.41q-12.68,21.86-15.5,24.66-34.53,45.81-97.94,45.8-48.61,0-85.26-28.89Q855.9,861.32,855.91,810.57Zm136,53.55q40.84,0,67.64-35.23Q1087,793,1087,750.68v-12H1069.4a448,448,0,0,0-45.8,2.12q-16.9.7-45.09,7.75-25.37,5.64-39.46,20.43a62.88,62.88,0,0,0-14.44,38q-1.07,21.86,17.61,40.16T991.9,864.12Z"/><path class="cls-3" d="M1237.1,862.71l-4.94-6.34,35.23-45.8q4.23,5.65,19,18.32,38.74,34.53,88.78,34.53,27.48,0,44.74-12.33t17.27-33.47q0-29.6-69.06-55-26.07-9.85-43.68-18.32a323.08,323.08,0,0,1-38.76-22.55q-21.14-14.09-32.06-33.47a85.29,85.29,0,0,1-10.92-42.63q0-47.19,36.64-73.63t95.83-26.42a190.85,190.85,0,0,1,79.62,16.91q37.34,16.22,37.35,52.14v33.82h-61.31V630.9q0-14.08-16.55-22.2a83.27,83.27,0,0,0-37-8.1q-66.24,0-66.23,42.28,0,30.3,68.35,56.36,26.76,9.16,44,16.91a310,310,0,0,1,38.75,21.5q21.48,13.74,32.41,33.11t10.92,44q0,47.22-37.34,76.1-36.64,28.19-93.71,28.18-49.34,0-84.56-18.32T1237.1,862.71Z"/><path class="cls-3" d="M1557,862.71l-4.94-6.34,35.23-45.8q4.23,5.65,19,18.32,38.75,34.53,88.78,34.53,27.48,0,44.74-12.33t17.26-33.47q0-29.6-69-55-26.07-9.85-43.68-18.32a323.08,323.08,0,0,1-38.76-22.55q-21.13-14.09-32.06-33.47a85.19,85.19,0,0,1-10.92-42.63q0-47.19,36.64-73.63t95.83-26.42a190.85,190.85,0,0,1,79.62,16.91q37.33,16.22,37.34,52.14v33.82h-61.3V630.9q0-14.08-16.55-22.2a83.27,83.27,0,0,0-37-8.1q-66.24,0-66.23,42.28,0,30.3,68.35,56.36,26.76,9.16,44,16.91a310,310,0,0,1,38.75,21.5q21.48,13.74,32.41,33.11t10.92,44q0,47.22-37.34,76.1-36.64,28.19-93.72,28.18-49.32,0-84.55-18.32T1557,862.71Z"/><path class="cls-2" d="M171,1270.46q0-107.1,71.16-180.39,71.88-72.55,178.27-72.57a298.42,298.42,0,0,1,57.78,6,339.63,339.63,0,0,1,60.24,18q29.94,12,49.33,33.82t19.37,50v48.62H542.37v-28.18q0-28.89-38.75-45.8A202.29,202.29,0,0,0,421.88,1083q-76.1,0-126.83,52.14-50.73,51.43-50.73,135.29,0,82.44,51.43,138.8,52.14,56.38,128.24,56.37,50.75,0,91.25-20.43T574.08,1405l7-7,38,50.73q-6.34,8.46-33.12,28.89A259.43,259.43,0,0,1,546.6,1503a272,272,0,0,1-123.31,28.89q-110.62,0-181.09-74.69Q171,1381.79,171,1270.46Z"/><path class="cls-3" d="M699.49,1478.32V1099.94q0-15.5-15.5-15.5H655.1V1026h67.64q24,0,34.53,10.57t10.57,34.52v378.38q0,15.51,15.5,15.5h28.89v58.48H744.58q-24,0-34.52-10.57T699.49,1478.32Z"/><path class="cls-3" d="M893.25,1478.32V1240.86q0-15.48-15.5-15.5H848.86v-58.48H915.8q23.94,0,34.52,10.57T960.89,1212v237.46q0,15.51,15.51,15.5h28.88v58.48H938.35q-24,0-34.53-10.57T893.25,1478.32ZM956,1097.12h-61.3V1026H956Z"/><path class="cls-3" d="M1049,1345.14q0-79.61,53.55-133.17t138.1-53.55a233.78,233.78,0,0,1,53.2,6.34q27.12,6.35,51.08,25.37t24,46.5v36.64h-62v-19.73q0-17.6-21.84-26.77a107,107,0,0,0-44.39-9.87q-52.15,0-87.37,35.94-34.53,34.53-34.53,91.6,0,58.5,36.64,93,37.34,33.83,88.78,33.82a144.55,144.55,0,0,0,57.08-12q26.76-12,40.86-24.66l12.69-12.68,29.59,48.62q-6.34,8.45-24,21.13-50,38.05-121.19,40.17-83.14,0-137.4-52.85Q1049,1426.18,1049,1345.14Z"/><path class="cls-3" d="M1522.46,1523.41h-68.34V1099.94q0-15.5-15.5-15.5h-28.89V1026h67.64q25.37,0,35.23,8.8t9.86,32.06v231.12h31.71q26.05,0,37.35-15.51L1674,1166.88h78.21l-96.53,132.47a134.8,134.8,0,0,1-23.26,25.36l-3.52,1.41v1.41q12,4.23,24,26.77l52.84,96.54q7.75,14.1,30.3,14.09h21.84v58.48h-49.32q-25.37,0-36.64-6.34t-22.55-26.78l-64.82-119.78q-8.46-14.79-35.23-14.8h-26.78Z"/></svg>